<mxfile host="app.diagrams.net" agent="Mozilla/5.0 (Windows NT 10.0; Win64; x64) AppleWebKit/537.36 (KHTML, like Gecko) Chrome/138.0.0.0 Safari/537.36" version="27.1.6">
  <diagram name="Página-1" id="IpmAKofrDw2QBqaIdOL2">
    <mxGraphModel grid="1" page="1" gridSize="10" guides="1" tooltips="1" connect="1" arrows="1" fold="1" pageScale="1" pageWidth="827" pageHeight="1169" math="0" shadow="0">
      <root>
        <mxCell id="0" />
        <mxCell id="1" parent="0" />
        <mxCell id="emeNvtZWzEPwYmurZ9CY-1" value="CU042 Gestionar Galería " style="swimlane;childLayout=stackLayout;resizeParent=1;resizeParentMax=0;startSize=20;horizontal=0;horizontalStack=1;" vertex="1" parent="1">
          <mxGeometry x="-160" y="-1040" width="760" height="660" as="geometry">
            <mxRectangle x="200" y="80" width="40" height="50" as="alternateBounds" />
          </mxGeometry>
        </mxCell>
        <mxCell id="emeNvtZWzEPwYmurZ9CY-4" value="Usuario" style="swimlane;startSize=20;" vertex="1" parent="emeNvtZWzEPwYmurZ9CY-1">
          <mxGeometry x="20" width="290" height="660" as="geometry" />
        </mxCell>
        <mxCell id="MkEyBu7R_c_1ipwITK1c-4" style="edgeStyle=orthogonalEdgeStyle;rounded=0;orthogonalLoop=1;jettySize=auto;html=1;entryX=0.5;entryY=0;entryDx=0;entryDy=0;" edge="1" parent="emeNvtZWzEPwYmurZ9CY-4" source="emeNvtZWzEPwYmurZ9CY-5" target="MkEyBu7R_c_1ipwITK1c-3">
          <mxGeometry relative="1" as="geometry" />
        </mxCell>
        <mxCell id="emeNvtZWzEPwYmurZ9CY-5" value="" style="ellipse;html=1;shape=startState;fillColor=#000000;strokeColor=#ff0000;fillStyle=auto;" vertex="1" parent="emeNvtZWzEPwYmurZ9CY-4">
          <mxGeometry x="180" y="30" width="30" height="30" as="geometry" />
        </mxCell>
        <mxCell id="MkEyBu7R_c_1ipwITK1c-3" value="Pulsar el aparatado de &quot;Galería&quot;" style="rhombus;whiteSpace=wrap;html=1;fontColor=#000000;fillColor=#ffffc0;strokeColor=#ff0000;" vertex="1" parent="emeNvtZWzEPwYmurZ9CY-4">
          <mxGeometry x="137" y="80" width="116" height="86" as="geometry" />
        </mxCell>
        <mxCell id="emeNvtZWzEPwYmurZ9CY-83" style="edgeStyle=orthogonalEdgeStyle;rounded=0;orthogonalLoop=1;jettySize=auto;html=1;exitX=1;exitY=0.5;exitDx=0;exitDy=0;strokeColor=light-dark(#ff0000, #ededed);entryX=0.583;entryY=0;entryDx=0;entryDy=0;entryPerimeter=0;" edge="1" parent="emeNvtZWzEPwYmurZ9CY-1" source="MkEyBu7R_c_1ipwITK1c-3" target="emeNvtZWzEPwYmurZ9CY-35">
          <mxGeometry relative="1" as="geometry">
            <mxPoint x="392" y="220" as="sourcePoint" />
          </mxGeometry>
        </mxCell>
        <mxCell id="emeNvtZWzEPwYmurZ9CY-85" value="si" style="edgeLabel;html=1;align=center;verticalAlign=middle;resizable=0;points=[];" vertex="1" connectable="0" parent="emeNvtZWzEPwYmurZ9CY-83">
          <mxGeometry x="-0.7201" y="-1" relative="1" as="geometry">
            <mxPoint as="offset" />
          </mxGeometry>
        </mxCell>
        <mxCell id="MkEyBu7R_c_1ipwITK1c-5" value="no&amp;nbsp;" style="edgeStyle=orthogonalEdgeStyle;rounded=0;orthogonalLoop=1;jettySize=auto;html=1;entryX=0;entryY=0.5;entryDx=0;entryDy=0;fillColor=#FF0000;strokeColor=light-dark(#ff0000, #ededed);exitX=0;exitY=0.5;exitDx=0;exitDy=0;" edge="1" parent="emeNvtZWzEPwYmurZ9CY-1" source="MkEyBu7R_c_1ipwITK1c-3" target="emeNvtZWzEPwYmurZ9CY-17">
          <mxGeometry relative="1" as="geometry">
            <mxPoint x="790" y="890" as="targetPoint" />
            <Array as="points">
              <mxPoint x="56" y="123" />
              <mxPoint x="56" y="620" />
              <mxPoint x="670" y="620" />
            </Array>
          </mxGeometry>
        </mxCell>
        <mxCell id="emeNvtZWzEPwYmurZ9CY-8" value="Sistema" style="swimlane;startSize=20;" vertex="1" parent="emeNvtZWzEPwYmurZ9CY-1">
          <mxGeometry x="310" width="450" height="660" as="geometry" />
        </mxCell>
        <mxCell id="emeNvtZWzEPwYmurZ9CY-17" value="" style="ellipse;html=1;shape=endState;fillColor=#000000;strokeColor=#ff0000;" vertex="1" parent="emeNvtZWzEPwYmurZ9CY-8">
          <mxGeometry x="350" y="600" width="30" height="30" as="geometry" />
        </mxCell>
        <mxCell id="emeNvtZWzEPwYmurZ9CY-35" value="Lo redirige al apartado&amp;nbsp;" style="rounded=1;whiteSpace=wrap;html=1;arcSize=40;fontColor=#000000;fillColor=#ffffc0;strokeColor=#ff0000;" vertex="1" parent="emeNvtZWzEPwYmurZ9CY-8">
          <mxGeometry x="204" y="208" width="120" height="50" as="geometry" />
        </mxCell>
        <mxCell id="MkEyBu7R_c_1ipwITK1c-41" value="Ver comentarios&lt;div&gt;&lt;br&gt;&lt;/div&gt;" style="rounded=1;whiteSpace=wrap;html=1;fillColor=#ffffc0;strokeColor=#ff0000;fontColor=#000000;arcSize=40;" vertex="1" parent="emeNvtZWzEPwYmurZ9CY-8">
          <mxGeometry x="20" y="416" width="120" height="60" as="geometry" />
        </mxCell>
        <mxCell id="MkEyBu7R_c_1ipwITK1c-51" style="edgeStyle=orthogonalEdgeStyle;rounded=0;orthogonalLoop=1;jettySize=auto;html=1;entryX=0.5;entryY=0;entryDx=0;entryDy=0;strokeColor=light-dark(#ff0505, #ededed);exitX=0.523;exitY=0.9;exitDx=0;exitDy=0;exitPerimeter=0;" edge="1" parent="emeNvtZWzEPwYmurZ9CY-8" source="MkEyBu7R_c_1ipwITK1c-44" target="MkEyBu7R_c_1ipwITK1c-40">
          <mxGeometry relative="1" as="geometry" />
        </mxCell>
        <mxCell id="MkEyBu7R_c_1ipwITK1c-44" value="" style="shape=line;html=1;strokeWidth=6;strokeColor=#ff0000;" vertex="1" parent="emeNvtZWzEPwYmurZ9CY-8">
          <mxGeometry x="164" y="330" width="200" height="10" as="geometry" />
        </mxCell>
        <mxCell id="MkEyBu7R_c_1ipwITK1c-45" value="" style="edgeStyle=orthogonalEdgeStyle;html=1;verticalAlign=bottom;endArrow=open;endSize=8;strokeColor=#ff0000;rounded=0;entryX=0.417;entryY=-0.017;entryDx=0;entryDy=0;entryPerimeter=0;exitX=0.507;exitY=1.007;exitDx=0;exitDy=0;exitPerimeter=0;" edge="1" parent="emeNvtZWzEPwYmurZ9CY-8" source="MkEyBu7R_c_1ipwITK1c-44" target="MkEyBu7R_c_1ipwITK1c-41">
          <mxGeometry relative="1" as="geometry">
            <mxPoint x="310" y="490" as="targetPoint" />
          </mxGeometry>
        </mxCell>
        <mxCell id="MkEyBu7R_c_1ipwITK1c-48" style="edgeStyle=orthogonalEdgeStyle;rounded=0;orthogonalLoop=1;jettySize=auto;html=1;entryX=0.502;entryY=-0.125;entryDx=0;entryDy=0;entryPerimeter=0;" edge="1" parent="emeNvtZWzEPwYmurZ9CY-8" source="emeNvtZWzEPwYmurZ9CY-35" target="MkEyBu7R_c_1ipwITK1c-44">
          <mxGeometry relative="1" as="geometry" />
        </mxCell>
        <mxCell id="MkEyBu7R_c_1ipwITK1c-55" style="edgeStyle=orthogonalEdgeStyle;rounded=0;orthogonalLoop=1;jettySize=auto;html=1;entryX=0.5;entryY=0;entryDx=0;entryDy=0;strokeColor=#FF0000;" edge="1" parent="emeNvtZWzEPwYmurZ9CY-8" source="MkEyBu7R_c_1ipwITK1c-52" target="emeNvtZWzEPwYmurZ9CY-17">
          <mxGeometry relative="1" as="geometry" />
        </mxCell>
        <mxCell id="MkEyBu7R_c_1ipwITK1c-52" value="" style="shape=line;html=1;strokeWidth=6;strokeColor=#ff0000;" vertex="1" parent="emeNvtZWzEPwYmurZ9CY-8">
          <mxGeometry x="164" y="530" width="200" height="10" as="geometry" />
        </mxCell>
        <mxCell id="MkEyBu7R_c_1ipwITK1c-53" style="edgeStyle=orthogonalEdgeStyle;rounded=0;orthogonalLoop=1;jettySize=auto;html=1;entryX=0.518;entryY=0.207;entryDx=0;entryDy=0;entryPerimeter=0;strokeColor=light-dark(#ff0000, #ededed);exitX=0.5;exitY=1;exitDx=0;exitDy=0;" edge="1" parent="emeNvtZWzEPwYmurZ9CY-8" source="MkEyBu7R_c_1ipwITK1c-40" target="MkEyBu7R_c_1ipwITK1c-52">
          <mxGeometry relative="1" as="geometry">
            <mxPoint x="130" y="445.9999999999998" as="sourcePoint" />
            <mxPoint x="253" y="532.5" as="targetPoint" />
            <Array as="points">
              <mxPoint x="268" y="466" />
            </Array>
          </mxGeometry>
        </mxCell>
        <mxCell id="MkEyBu7R_c_1ipwITK1c-54" style="edgeStyle=orthogonalEdgeStyle;rounded=0;orthogonalLoop=1;jettySize=auto;html=1;entryX=0.518;entryY=0.1;entryDx=0;entryDy=0;entryPerimeter=0;strokeColor=#FF0000;exitX=0.5;exitY=1;exitDx=0;exitDy=0;" edge="1" parent="emeNvtZWzEPwYmurZ9CY-8" source="MkEyBu7R_c_1ipwITK1c-41" target="MkEyBu7R_c_1ipwITK1c-52">
          <mxGeometry relative="1" as="geometry" />
        </mxCell>
        <mxCell id="MkEyBu7R_c_1ipwITK1c-40" value="Muestra foto y videos" style="rounded=1;whiteSpace=wrap;html=1;arcSize=40;fontColor=#000000;fillColor=#ffffc0;strokeColor=#ff0000;" vertex="1" parent="emeNvtZWzEPwYmurZ9CY-8">
          <mxGeometry x="180" y="416" width="120" height="50" as="geometry" />
        </mxCell>
        <mxCell id="_i-l2le0lV2flIzT-Ydt-10" style="edgeStyle=orthogonalEdgeStyle;rounded=0;orthogonalLoop=1;jettySize=auto;html=1;fontSize=12;startSize=8;endSize=8;" edge="1" parent="emeNvtZWzEPwYmurZ9CY-8" source="_i-l2le0lV2flIzT-Ydt-7" target="MkEyBu7R_c_1ipwITK1c-52">
          <mxGeometry relative="1" as="geometry">
            <Array as="points">
              <mxPoint x="440" y="500" />
              <mxPoint x="264" y="500" />
            </Array>
          </mxGeometry>
        </mxCell>
        <mxCell id="_i-l2le0lV2flIzT-Ydt-7" value="Seleccionar comentario público" style="rounded=1;whiteSpace=wrap;html=1;arcSize=40;fontColor=#000000;fillColor=#ffffc0;strokeColor=#ff0000;" vertex="1" parent="emeNvtZWzEPwYmurZ9CY-8">
          <mxGeometry x="380" y="421" width="120" height="50" as="geometry" />
        </mxCell>
        <mxCell id="_i-l2le0lV2flIzT-Ydt-6" value="" style="edgeStyle=orthogonalEdgeStyle;html=1;verticalAlign=bottom;endArrow=open;endSize=8;strokeColor=#ff0000;rounded=0;exitX=0.522;exitY=0.733;exitDx=0;exitDy=0;exitPerimeter=0;entryX=0.5;entryY=0;entryDx=0;entryDy=0;" edge="1" parent="emeNvtZWzEPwYmurZ9CY-8" source="MkEyBu7R_c_1ipwITK1c-44" target="_i-l2le0lV2flIzT-Ydt-7">
          <mxGeometry relative="1" as="geometry">
            <mxPoint x="360" y="420" as="targetPoint" />
            <mxPoint x="455" y="370" as="sourcePoint" />
            <Array as="points">
              <mxPoint x="264" y="337" />
              <mxPoint x="264" y="380" />
              <mxPoint x="440" y="380" />
            </Array>
          </mxGeometry>
        </mxCell>
        <mxCell id="_i-l2le0lV2flIzT-Ydt-11" style="edgeStyle=orthogonalEdgeStyle;rounded=0;orthogonalLoop=1;jettySize=auto;html=1;fontSize=12;startSize=8;endSize=8;" edge="1" parent="emeNvtZWzEPwYmurZ9CY-8">
          <mxGeometry relative="1" as="geometry">
            <mxPoint x="270" y="535" as="targetPoint" />
            <mxPoint x="580" y="476" as="sourcePoint" />
            <Array as="points">
              <mxPoint x="580" y="500" />
              <mxPoint x="270" y="500" />
            </Array>
          </mxGeometry>
        </mxCell>
        <mxCell id="_i-l2le0lV2flIzT-Ydt-1" value="Administrador" style="swimlane;startSize=20;" vertex="1" parent="1">
          <mxGeometry x="600" y="-1040" width="340" height="660" as="geometry" />
        </mxCell>
        <mxCell id="_i-l2le0lV2flIzT-Ydt-12" style="edgeStyle=orthogonalEdgeStyle;rounded=0;orthogonalLoop=1;jettySize=auto;html=1;fontSize=12;startSize=8;endSize=8;" edge="1" parent="_i-l2le0lV2flIzT-Ydt-1" source="_i-l2le0lV2flIzT-Ydt-9">
          <mxGeometry relative="1" as="geometry">
            <mxPoint x="-190" y="530" as="targetPoint" />
            <Array as="points">
              <mxPoint x="260" y="500" />
              <mxPoint x="-189" y="500" />
              <mxPoint x="-189" y="530" />
            </Array>
          </mxGeometry>
        </mxCell>
        <mxCell id="_i-l2le0lV2flIzT-Ydt-9" value="Eliminar imagen" style="rounded=1;whiteSpace=wrap;html=1;arcSize=40;fontColor=#000000;fillColor=#ffffc0;strokeColor=#ff0000;" vertex="1" parent="_i-l2le0lV2flIzT-Ydt-1">
          <mxGeometry x="200" y="421" width="120" height="50" as="geometry" />
        </mxCell>
        <mxCell id="_i-l2le0lV2flIzT-Ydt-8" value="Agregar imagen" style="rounded=1;whiteSpace=wrap;html=1;arcSize=40;fontColor=#000000;fillColor=#ffffc0;strokeColor=#ff0000;" vertex="1" parent="_i-l2le0lV2flIzT-Ydt-1">
          <mxGeometry x="60" y="421" width="120" height="50" as="geometry" />
        </mxCell>
        <mxCell id="_i-l2le0lV2flIzT-Ydt-13" style="edgeStyle=orthogonalEdgeStyle;rounded=0;orthogonalLoop=1;jettySize=auto;html=1;entryX=0.5;entryY=0;entryDx=0;entryDy=0;fontSize=12;startSize=8;endSize=8;" edge="1" parent="1" source="MkEyBu7R_c_1ipwITK1c-44" target="_i-l2le0lV2flIzT-Ydt-8">
          <mxGeometry relative="1" as="geometry">
            <Array as="points">
              <mxPoint x="414" y="-660" />
              <mxPoint x="720" y="-660" />
            </Array>
          </mxGeometry>
        </mxCell>
        <mxCell id="_i-l2le0lV2flIzT-Ydt-14" style="edgeStyle=orthogonalEdgeStyle;rounded=0;orthogonalLoop=1;jettySize=auto;html=1;entryX=0.5;entryY=0;entryDx=0;entryDy=0;fontSize=12;startSize=8;endSize=8;" edge="1" parent="1" source="MkEyBu7R_c_1ipwITK1c-44" target="_i-l2le0lV2flIzT-Ydt-9">
          <mxGeometry relative="1" as="geometry">
            <Array as="points">
              <mxPoint x="414" y="-660" />
              <mxPoint x="860" y="-660" />
            </Array>
          </mxGeometry>
        </mxCell>
      </root>
    </mxGraphModel>
  </diagram>
</mxfile>
